<?xml version="1.0" encoding="utf-8"?>
<!-- Generator: Adobe Illustrator 28.1.0, SVG Export Plug-In . SVG Version: 6.00 Build 0)  -->
<svg version="1.1" id="Layer_1" xmlns="http://www.w3.org/2000/svg" xmlns:xlink="http://www.w3.org/1999/xlink" x="0px" y="0px"
	 viewBox="0 0 350 350" style="enable-background:new 0 0 350 350;" xml:space="preserve">
<style type="text/css">
	.st0{fill:url(#BG_00000009585660141554410680000017192464857475646122_);}
	.st1{fill:url(#SVGID_1_);}
	.st2{fill:#FFFFFF;}
	.st3{fill:none;stroke:#FFFFFF;stroke-width:2;stroke-miterlimit:10;}
</style>
<linearGradient id="BG_00000058579938291493641600000009370884967683449791_" gradientUnits="userSpaceOnUse" x1="-1.966956e-06" y1="2" x2="350" y2="352" gradientTransform="matrix(4.489659e-11 -1 -1 -4.489659e-11 352 350)">
	<stop  offset="0" style="stop-color:#202687"/>
	<stop  offset="1.000000e-03" style="stop-color:#141C3F"/>
	<stop  offset="1" style="stop-color:#6B44C1"/>
</linearGradient>
<path id="BG" style="fill:url(#BG_00000058579938291493641600000009370884967683449791_);" d="M0,330L0,20C0,9,9,0,20,0l310,0
	c11,0,20,9,20,20v310c0,11-9,20-20,20H20C9,350,0,341,0,330z"/>
<radialGradient id="SVGID_1_" cx="175" cy="110.241" r="88.3884" gradientTransform="matrix(1 0 0 0.9333 0 15.6467)" gradientUnits="userSpaceOnUse">
	<stop  offset="0" style="stop-color:#202687"/>
	<stop  offset="1.000000e-03" style="stop-color:#FF3737"/>
	<stop  offset="1" style="stop-color:#FF0000"/>
</radialGradient>
<path class="st1" d="M262.5,188.5h-175c-6.9,0-12.5-5.6-12.5-12.5V61c0-6.9,5.6-12.5,12.5-12.5h175c6.9,0,12.5,5.6,12.5,12.5v115
	C275,182.9,269.4,188.5,262.5,188.5z"/>
<path class="st2" d="M203.2,114.8l-52.1-30.1c-2.9-1.6-6.4,0.4-6.4,3.7v60.2c0,3.3,3.6,5.4,6.4,3.7l52.1-30.1
	C206,120.6,206,116.5,203.2,114.8z"/>
<g>
	<path class="st2" d="M136.6,270.3v-24h16.2v6.6h-7.5v2.2h6.8v6.3h-6.8v2.3h7.7v6.6H136.6z"/>
	<path class="st2" d="M167.6,255.4c-0.3-0.6-0.3-1.2-0.3-1.4v-0.5h8.1v16.8h-8.1l0-0.6c0-0.5,0.2-1.1,0.3-1.5h-0.3
		c-1.9,2.4-4,2.6-5,2.6c-1.7,0-3.3-0.5-4.8-2c-1.4-1.5-2.5-3.7-2.5-6.8c0-3,1-5.4,2.6-6.9c1.3-1.3,2.8-2,5-2c1,0,3,0.2,4.7,2.5
		L167.6,255.4z M164,263.7c0.4,0.4,0.9,0.6,1.4,0.6c0.5,0,1-0.1,1.4-0.5c0.5-0.5,0.8-1.1,0.8-1.9c0-0.8-0.3-1.4-0.7-1.8
		c-0.4-0.3-0.8-0.5-1.4-0.5c-0.5,0-1.1,0.2-1.5,0.6c-0.4,0.4-0.7,1-0.7,1.8C163.2,262.7,163.6,263.3,164,263.7z"/>
	<path class="st2" d="M191.3,259.2c-0.6-0.4-1-0.7-1.7-1c-0.6-0.3-1.3-0.5-2.1-0.5c-0.3,0-0.6,0.1-0.9,0.3c-0.2,0.1-0.3,0.4-0.3,0.6
		c0,0.3,0.1,0.4,0.3,0.5c0.2,0.2,0.5,0.2,1,0.3l1.7,0.4c1.1,0.3,2.4,0.6,3.3,1.6c0.5,0.6,1.2,1.6,1.2,3.1c0,1.7-0.6,3.1-1.7,4.1
		c-1.9,1.9-4.5,2.2-6.4,2.2c-3.1,0-5.3-0.8-6.7-1.4l-1.2-0.5l2.1-5.1l1.2,0.7c1.1,0.7,2.4,1.2,3.3,1.2c0.3,0,0.8-0.1,1.1-0.3
		c0.3-0.2,0.3-0.4,0.3-0.6c0-0.3-0.1-0.5-0.3-0.7c-0.2-0.1-0.5-0.3-1.2-0.4l-1.2-0.2c-0.9-0.1-2-0.4-3-1.4c-1-0.9-1.3-2-1.3-3.2
		c0-1.9,0.8-3.3,2.4-4.3c1.9-1.3,4-1.5,5.7-1.5c1.8,0,4,0.3,6.3,1.4L191.3,259.2z"/>
	<path class="st2" d="M193.8,253.5h8.8l2,6.9c0.2,0.8,0.3,1.4,0.4,2.2h0.2c0-0.8,0.2-1.7,0.4-2.3l1.9-6.8h8.6l-11.4,25.1h-8.7l5-9.9
		L193.8,253.5z"/>
	<path class="st2" d="M20.1,302.3v-24h10.8c2.5,0,5.1,0.3,7.3,2.5c1.2,1.2,2.3,3.1,2.3,5.9c0,2.1-0.6,3.5-1.3,4.3
		c-0.7,0.9-1.9,1.6-3.3,1.9v0.2c0.5,0.3,0.9,0.6,1.3,1.1l5.4,8.1h-10l-3.5-7c-0.1-0.3-0.2-0.4-0.3-0.8l-0.1,0.1v7.7H20.1z M28.6,289
		h1c0.5,0,1.3-0.1,1.8-0.5c0.3-0.3,0.6-0.7,0.6-1.5c0-0.5-0.1-1.1-0.5-1.4c-0.3-0.3-0.8-0.6-1.5-0.6h-1.5V289z"/>
	<path class="st2" d="M51.3,295.3c0,0.8,0.1,1.9,0.6,2.4c0.2,0.2,0.6,0.5,1.2,0.5c0.5,0,0.9-0.2,1.2-0.5c0.3-0.2,0.4-0.6,0.5-1h8
		c-0.4,1.3-1,2.1-1.7,2.9c-1.7,1.9-3.8,3.2-7.7,3.2c-2.6,0-5.7-0.5-8-2.8c-1-1-2.4-3-2.4-5.9c0-2.4,0.9-4.7,2.5-6.3
		c1.6-1.5,4.1-2.8,7.5-2.8c3.2,0,5.6,1,7.2,2.7c1.8,1.7,2.8,4.3,2.8,6.6v0.9H51.3z M55.2,291.8c0-0.6-0.3-1.3-0.7-1.7
		c-0.3-0.3-0.8-0.5-1.3-0.5c-0.4,0-0.9,0.2-1.2,0.4c-0.4,0.4-0.6,1.2-0.6,1.7H55.2z"/>
	<path class="st2" d="M78.4,291.2c-0.6-0.4-1-0.7-1.7-1s-1.3-0.5-2.1-0.5c-0.3,0-0.6,0.1-0.9,0.3c-0.2,0.1-0.3,0.4-0.3,0.6
		c0,0.3,0.1,0.4,0.3,0.5c0.2,0.2,0.5,0.2,1,0.3l1.7,0.4c1.1,0.3,2.4,0.6,3.3,1.6c0.5,0.6,1.2,1.6,1.2,3.1c0,1.7-0.6,3.1-1.7,4.1
		c-1.9,1.9-4.5,2.2-6.4,2.2c-3.1,0-5.3-0.8-6.7-1.4l-1.2-0.5l2.1-5.1l1.2,0.7c1.1,0.7,2.4,1.2,3.3,1.2c0.3,0,0.8-0.1,1.1-0.3
		c0.3-0.2,0.3-0.4,0.3-0.6c0-0.3-0.1-0.5-0.3-0.7c-0.2-0.1-0.5-0.3-1.2-0.4l-1.2-0.2c-0.9-0.1-2-0.4-3-1.4c-1-0.9-1.3-2-1.3-3.2
		c0-1.9,0.8-3.3,2.4-4.3c1.9-1.3,4-1.5,5.7-1.5c1.8,0,4,0.3,6.3,1.4L78.4,291.2z"/>
	<path class="st2" d="M83.1,310.6v-25.1h7.8v0.9c0,0.5-0.1,1.1-0.2,1.5l0,0.1l0.3,0.1c0.5-0.8,1.1-1.5,1.7-2
		c0.8-0.5,1.9-1.1,3.4-1.1c1.9,0,3.6,0.8,4.8,1.9c1.7,1.7,2.4,4.4,2.4,6.9c0,3.5-1.5,5.7-2.6,6.9c-1.3,1.4-2.7,2-4.5,2
		c-1.1,0-2.2-0.3-3.3-1c-0.6-0.4-1.3-1-1.7-1.8h-0.3c0.3,1.3,0.4,2.2,0.4,3.3v7.3H83.1z M91.6,296c0.4,0.4,0.9,0.5,1.4,0.5
		c0.6,0,1-0.2,1.4-0.5c0.5-0.5,0.8-1.3,0.8-2c0-0.8-0.3-1.5-0.8-2c-0.3-0.3-0.8-0.6-1.5-0.6c-0.5,0-1,0.2-1.3,0.5
		c-0.5,0.5-0.8,1.4-0.8,2.1C90.9,294.9,91.1,295.6,91.6,296z"/>
	<path class="st2" d="M123.2,300c-1.4,1.4-3.8,2.8-7.8,2.8c-4,0-6.5-1.4-7.8-2.8c-1.4-1.4-2.4-3.6-2.4-6c0-2.1,0.8-4.4,2.4-6
		c1.4-1.4,3.8-2.8,7.8-2.8c4,0,6.5,1.4,7.8,2.8c1.6,1.7,2.4,4,2.4,6C125.6,296.3,124.6,298.5,123.2,300z M113.7,292.1
		c-0.4,0.4-0.7,0.9-0.7,1.8c0,0.9,0.3,1.5,0.7,1.8c0.3,0.3,0.8,0.6,1.6,0.6c0.8,0,1.3-0.3,1.6-0.6c0.4-0.4,0.7-0.9,0.7-1.8
		c0-0.9-0.3-1.4-0.7-1.8c-0.3-0.3-0.8-0.6-1.6-0.6C114.5,291.5,114,291.9,113.7,292.1z"/>
	<path class="st2" d="M128.1,302.3v-16.8h8v0.9c0,0.6-0.1,1.2-0.3,1.7l0.2,0c0.6-0.8,1.6-1.7,2.3-2.2c0.9-0.6,1.9-0.9,3.1-0.9
		c1.9,0,3.3,0.8,4.1,1.5c1.7,1.6,1.9,3.7,1.9,5v10.8h-8.2v-9.1c0-0.8-0.3-1.2-0.4-1.3c-0.3-0.3-0.6-0.4-0.9-0.4
		c-0.4,0-0.8,0.1-1,0.4c-0.5,0.5-0.5,1.2-0.5,1.7v8.7H128.1z"/>
	<path class="st2" d="M163.2,291.2c-0.6-0.4-1-0.7-1.7-1s-1.3-0.5-2.1-0.5c-0.3,0-0.6,0.1-0.9,0.3c-0.2,0.1-0.3,0.4-0.3,0.6
		c0,0.3,0.1,0.4,0.3,0.5c0.2,0.2,0.5,0.2,1,0.3l1.7,0.4c1.1,0.3,2.4,0.6,3.3,1.6c0.5,0.6,1.2,1.6,1.2,3.1c0,1.7-0.6,3.1-1.7,4.1
		c-1.9,1.9-4.5,2.2-6.4,2.2c-3.1,0-5.3-0.8-6.7-1.4l-1.2-0.5l2.1-5.1l1.2,0.7c1.1,0.7,2.4,1.2,3.3,1.2c0.3,0,0.8-0.1,1.1-0.3
		c0.3-0.2,0.3-0.4,0.3-0.6c0-0.3-0.1-0.5-0.3-0.7c-0.2-0.1-0.5-0.3-1.2-0.4l-1.2-0.2c-0.9-0.1-2-0.4-3-1.4c-1-0.9-1.3-2-1.3-3.2
		c0-1.9,0.8-3.3,2.4-4.3c1.9-1.3,4-1.5,5.7-1.5c1.8,0,4,0.3,6.3,1.4L163.2,291.2z"/>
	<path class="st2" d="M175.4,282.9c-0.8,0.8-2.1,1.3-3.5,1.3s-2.7-0.5-3.5-1.3c-0.6-0.6-1-1.6-1-2.7s0.4-2,1-2.7
		c0.8-0.8,2.1-1.3,3.5-1.3s2.7,0.5,3.5,1.3c0.6,0.6,1,1.6,1,2.7S176,282.3,175.4,282.9z M167.9,302.3v-16.8h8.2v16.8H167.9z"/>
	<path class="st2" d="M177.2,285.5h8.8l1.8,6.2c0.1,0.4,0.3,1.2,0.3,1.7h0.3c0-0.3,0.1-1,0.3-1.7l1.9-6.2h8.8l-7.3,16.8h-7.5
		L177.2,285.5z"/>
	<path class="st2" d="M207.4,295.3c0,0.8,0.1,1.9,0.6,2.4c0.2,0.2,0.6,0.5,1.2,0.5c0.5,0,0.9-0.2,1.2-0.5c0.3-0.2,0.4-0.6,0.5-1h8
		c-0.4,1.3-1,2.1-1.7,2.9c-1.7,1.9-3.8,3.2-7.7,3.2c-2.6,0-5.7-0.5-8-2.8c-1-1-2.4-3-2.4-5.9c0-2.4,0.9-4.7,2.5-6.3
		c1.6-1.5,4.1-2.8,7.5-2.8c3.2,0,5.6,1,7.2,2.7c1.8,1.7,2.8,4.3,2.8,6.6v0.9H207.4z M211.3,291.8c0-0.6-0.3-1.3-0.7-1.7
		c-0.3-0.3-0.8-0.5-1.3-0.5c-0.4,0-0.9,0.2-1.2,0.4c-0.4,0.4-0.6,1.2-0.6,1.7H211.3z"/>
	<path class="st2" d="M228.3,278.3h9.1l3.3,11.3c0.3,0.9,0.5,2.3,0.5,3.2h0.2c0-1,0.2-2.2,0.5-3.2l3.3-11.3h9.1l-9.3,24h-7.5
		L228.3,278.3z"/>
	<path class="st2" d="M263.1,282.9c-0.8,0.8-2.1,1.3-3.5,1.3c-1.4,0-2.7-0.5-3.5-1.3c-0.6-0.6-1-1.6-1-2.7s0.4-2,1-2.7
		c0.8-0.8,2.1-1.3,3.5-1.3c1.4,0,2.7,0.5,3.5,1.3c0.6,0.6,1,1.6,1,2.7S263.7,282.3,263.1,282.9z M255.5,302.3v-16.8h8.2v16.8H255.5z
		"/>
	<path class="st2" d="M278.2,276.1h8.2v26.2h-7.9v-0.8c0-0.6,0.2-1.5,0.3-1.9l-0.3,0c-0.4,0.8-1,1.6-1.9,2.2c-0.9,0.6-2.2,1-3.5,1
		c-1.7,0-3.3-0.7-4.4-1.9c-1.7-1.7-2.5-4.4-2.5-6.9c0-3,1-5.5,2.6-7c0.9-0.9,2.4-1.9,4.5-1.9c1.2,0,2.3,0.4,3.2,0.9
		c0.7,0.5,1.4,1.2,1.8,1.8h0.3c-0.1-0.6-0.3-1.7-0.3-2.4V276.1z M277.7,291.7c-0.4-0.4-0.8-0.5-1.4-0.5c-0.7,0-1.2,0.3-1.4,0.5
		c-0.5,0.4-0.8,1.3-0.8,2c0,0.8,0.3,1.6,0.8,2.1c0.4,0.4,0.9,0.6,1.4,0.6c0.5,0,1-0.1,1.4-0.5c0.3-0.2,0.8-0.8,0.8-2
		C278.6,293,278.3,292.2,277.7,291.7z"/>
	<path class="st2" d="M297.1,295.3c0,0.8,0.1,1.9,0.6,2.4c0.2,0.2,0.6,0.5,1.2,0.5c0.5,0,0.9-0.2,1.2-0.5c0.3-0.2,0.4-0.6,0.5-1h8
		c-0.4,1.3-1,2.1-1.7,2.9c-1.7,1.9-3.8,3.2-7.7,3.2c-2.6,0-5.7-0.5-8-2.8c-1-1-2.4-3-2.4-5.9c0-2.4,0.9-4.7,2.5-6.3
		c1.6-1.5,4.1-2.8,7.5-2.8c3.2,0,5.6,1,7.2,2.7c1.8,1.7,2.8,4.3,2.8,6.6v0.9H297.1z M301,291.8c0-0.6-0.3-1.3-0.7-1.7
		c-0.3-0.3-0.8-0.5-1.3-0.5c-0.4,0-0.9,0.2-1.2,0.4c-0.4,0.4-0.6,1.2-0.6,1.7H301z"/>
	<path class="st2" d="M328.9,300c-1.4,1.4-3.8,2.8-7.8,2.8s-6.5-1.4-7.8-2.8c-1.4-1.4-2.4-3.6-2.4-6c0-2.1,0.8-4.4,2.4-6
		c1.4-1.4,3.8-2.8,7.8-2.8s6.5,1.4,7.8,2.8c1.6,1.7,2.4,4,2.4,6C331.3,296.3,330.3,298.5,328.9,300z M319.4,292.1
		c-0.4,0.4-0.7,0.9-0.7,1.8c0,0.9,0.3,1.5,0.7,1.8c0.3,0.3,0.8,0.6,1.6,0.6s1.3-0.3,1.6-0.6c0.4-0.4,0.7-0.9,0.7-1.8
		c0-0.9-0.3-1.4-0.7-1.8c-0.3-0.3-0.8-0.6-1.6-0.6S319.7,291.9,319.4,292.1z"/>
</g>
<g>
	<line class="st2" x1="20.1" y1="26.6" x2="66.7" y2="48.3"/>
	<g>
		<line class="st3" x1="32.9" y1="32.5" x2="66.7" y2="48.3"/>
		<g>
			<polygon class="st2" points="20.1,26.6 34.7,42.4 33.9,33 41.6,27.6 			"/>
		</g>
	</g>
</g>
<g>
	<line class="st2" x1="331.4" y1="213.6" x2="284.9" y2="191.8"/>
	<g>
		<line class="st3" x1="318.6" y1="207.6" x2="284.9" y2="191.8"/>
		<g>
			<polygon class="st2" points="331.4,213.6 316.8,197.8 317.7,207.2 310,212.5 			"/>
		</g>
	</g>
</g>
</svg>
